<?xml version="1.0" encoding="UTF-8" standalone="no"?>
<svg
   xmlns:dc="http://purl.org/dc/elements/1.1/"
   xmlns:cc="http://creativecommons.org/ns#"
   xmlns:rdf="http://www.w3.org/1999/02/22-rdf-syntax-ns#"
   xmlns:svg="http://www.w3.org/2000/svg"
   xmlns="http://www.w3.org/2000/svg"
   xmlns:sodipodi="http://sodipodi.sourceforge.net/DTD/sodipodi-0.dtd"
   xmlns:inkscape="http://www.inkscape.org/namespaces/inkscape"
   inkscape:version="1.0 (4035a4f, 2020-05-01)"
   sodipodi:docname="profile2.svg"
   id="svg370"
   viewBox="0 0 172 172"
   version="1.1">
  <metadata
     id="metadata376">
    <rdf:RDF>
      <cc:Work
         rdf:about="">
        <dc:format>image/svg+xml</dc:format>
        <dc:type
           rdf:resource="http://purl.org/dc/dcmitype/StillImage" />
      </cc:Work>
    </rdf:RDF>
  </metadata>
  <defs
     id="defs374" />
  <sodipodi:namedview
     inkscape:current-layer="svg370"
     inkscape:window-maximized="0"
     inkscape:window-y="57"
     inkscape:window-x="94"
     inkscape:cy="86"
     inkscape:cx="39.627451"
     inkscape:zoom="4.1511628"
     showgrid="false"
     id="namedview372"
     inkscape:window-height="808"
     inkscape:window-width="1757"
     inkscape:pageshadow="2"
     inkscape:pageopacity="0"
     guidetolerance="10"
     gridtolerance="10"
     objecttolerance="10"
     borderopacity="1"
     bordercolor="#666666"
     pagecolor="#ffffff" />
  <path
     d="M 0,172 V 0 h 172 v 172 z"
     fill="none"
     id="path356"
     style="font-family:none;mix-blend-mode:normal;fill-rule:nonzero;stroke:none;stroke-width:1;stroke-linecap:butt;stroke-linejoin:miter;stroke-miterlimit:10;stroke-dasharray:none;stroke-dashoffset:0" />
  <path
     id="path358"
     fill="#9fdadf"
     d="m 103.7805,16.26833 c -15.15033,0.7095 -30.26125,-2.16075 -45.41158,-1.45125 -5.23883,0.24367 -10.5135,0.4945 -15.61258,1.69492 -7.912,1.86333 -15.38325,6.18842 -20.01292,12.73158 -8.0195,11.34125 -6.20275,26.41633 -5.45383,40.1835 0.86,15.78817 3.90942,31.64083 1.73792,47.30717 -0.98183,7.0735 -2.12133,17.12117 1.17533,23.49233 2.623,5.07042 7.75792,8.55342 13.23325,10.46333 5.47533,1.90992 11.33767,2.43667 17.12833,2.9455 28.93183,2.54775 53.95067,2.64092 82.96133,1.15742 3.61917,-0.18633 7.38167,-0.47658 10.50275,-2.279 2.4295,-1.40467 4.26417,-3.62275 5.71183,-5.99492 7.53933,-12.36967 5.10267,-27.91058 3.84492,-42.25467 -1.26133,-14.36917 -1.08217,-28.85658 0.53033,-43.18992 0.96392,-8.56058 2.43667,-13.63458 1.1395,-22.15217 -1.29717,-8.52117 -5.977,-17.11758 -14.03233,-20.61133 -4.91992,-2.13208 -10.48842,-2.15 -15.87058,-2.1285 -7.20608,0.02867 -14.36917,0.06092 -21.57167,0.086 z"
     style="font-family:none;mix-blend-mode:normal;fill-rule:nonzero;stroke:none;stroke-width:1;stroke-linecap:butt;stroke-linejoin:miter;stroke-miterlimit:10;stroke-dasharray:none;stroke-dashoffset:0" />
  <path
     id="path360"
     fill="#f17d76"
     d="m 150.85833,144.51942 c -13.18667,-17.83067 -33.86608,-34.99125 -55.63125,-38.05858 -13.81733,-1.94933 -28.10767,1.06425 -40.549,7.46767 -12.44133,6.40342 -24.28067,17.66583 -32.81617,28.86017 0,0 4.72283,6.81192 13.48767,8.50683 8.76842,1.69492 37.73967,4.46483 50.40317,4.46483 12.6635,0 47.05992,1.40108 54.21225,-1.70925 7.15233,-3.11033 10.89333,-9.53167 10.89333,-9.53167 z"
     style="font-family:none;mix-blend-mode:normal;fill-rule:nonzero;stroke:none;stroke-width:1;stroke-linecap:butt;stroke-linejoin:miter;stroke-miterlimit:10;stroke-dasharray:none;stroke-dashoffset:0" />
  <path
     id="path362"
     fill="#fcbf95"
     d="m 87.40108,45.03533 c -8.44592,-0.25442 -13.33358,1.85975 -17.45083,6.41775 -6.13825,6.78683 -6.94092,14.46233 -7.02333,23.4135 -0.05017,5.3965 0.13258,10.793 0.54467,16.17517 0.31175,4.05275 0.76683,8.16642 2.40442,11.92175 2.83083,6.49658 8.95117,11.28033 15.63767,14.28317 5.67958,2.55133 12.53092,3.94883 18.14242,1.26492 3.397,-1.62683 5.89817,-4.54725 7.95858,-7.58592 10.04408,-14.79917 11.50967,-34.52542 3.75175,-50.51783 -2.10342,-4.33583 -4.89483,-8.46742 -8.80425,-11.46667 C 98.65276,45.94192 92.42135,45.18942 87.4011,45.03534 Z"
     style="font-family:none;mix-blend-mode:normal;fill-rule:nonzero;stroke:none;stroke-width:1;stroke-linecap:butt;stroke-linejoin:miter;stroke-miterlimit:10;stroke-dasharray:none;stroke-dashoffset:0" />
  <path
     id="path364"
     fill="#010101"
     d="m 155.36617,104.11017 c -1.247,-14.22583 -1.07142,-28.638 0.52675,-42.83517 0.22575,-1.99233 0.47658,-3.79475 0.71308,-5.49325 0.77758,-5.55417 1.44408,-10.34867 0.41208,-17.12475 -1.57667,-10.35583 -7.22042,-18.57242 -15.08942,-21.98733 -5.35708,-2.31842 -11.31975,-2.322 -16.59083,-2.27542 l -21.5645,0.08242 -0.0752,0.0036 C 96.24116,14.83858 88.59433,14.28675 81.2055,13.75642 73.71633,13.22967 65.97275,12.67425 58.29008,13.03259 c -5.246,0.24367 -10.67117,0.49808 -15.93867,1.73792 -8.94758,2.107 -16.42958,6.88 -21.06642,13.4375 -7.63608,10.80375 -6.80833,24.35233 -6.00925,37.453 l 0.22575,3.86642 c 0.25442,4.70133 0.7095,9.47075 1.15025,14.07892 1.032,10.84317 2.10342,22.05542 0.602,32.88783 -1.247,8.98342 -1.94217,18.17825 1.35808,24.56017 2.59433,5.0095 7.65042,9.03358 14.23658,11.3305 5.72617,2.00308 11.74258,2.52625 17.55833,3.03867 16.23608,1.42975 31.61575,2.13208 47.95575,2.13208 11.12267,0 22.68608,-0.32608 35.25642,-0.97108 4.0205,-0.20783 7.912,-0.55183 11.30542,-2.5155 2.40083,-1.38675 4.47558,-3.5475 6.34608,-6.61483 7.10217,-11.653 5.77633,-25.59217 4.4935,-39.0655 z m -7.15592,41.47708 c -1.55158,2.54058 -3.21067,4.29642 -5.07758,5.37858 -2.70542,1.56592 -6.13108,1.85617 -9.6965,2.03892 -30.85608,1.5695 -55.60258,1.23625 -82.71408,-1.15383 -5.60075,-0.49092 -11.39142,-0.99617 -16.69117,-2.84875 -4.09575,-1.42975 -7.46408,-3.5905 -9.85775,-6.235 9.23783,-11.82858 20.597,-21.71858 31.33267,-27.2405 4.22833,-2.193 8.62508,-3.92017 13.08633,-5.21017 3.07808,3.40417 7.22758,6.33892 12.18333,8.56775 4.23908,1.90275 8.33125,2.86308 12.05075,2.86308 2.77708,0 5.34633,-0.5375 7.60025,-1.61608 3.9775,-1.90275 6.70442,-5.3535 8.46383,-7.90483 16.13575,6.7295 30.44758,20.09533 39.7965,32.42558 -0.172,0.30458 -0.29025,0.63067 -0.47658,0.93525 z m -42.0755,-35.66492 c -1.51933,2.22883 -3.92017,5.37858 -7.25267,6.97317 -5.805,2.78783 -12.91433,0.387 -16.63742,-1.27925 -7.14158,-3.21067 -12.37325,-7.955 -14.7275,-13.36583 -1.56233,-3.58333 -1.97442,-7.56442 -2.2575,-11.34125 -0.4085,-5.31767 -0.59125,-10.71058 -0.5375,-16.02108 0.07167,-7.97292 0.62708,-15.66633 6.5575,-22.231 3.75533,-4.15308 7.96217,-5.848 14.73108,-5.848 0.43358,0 0.8815,0.0072 1.34017,0.0215 6.56467,0.19708 11.31617,1.38675 14.11833,3.53317 3.25008,2.49042 5.95908,6.03792 8.28467,10.82525 7.45692,15.37608 6.03433,34.50392 -3.61917,48.73333 z m 45.66242,-5.49683 0.39775,4.3 c 1.06067,11.13342 2.12492,22.58217 -1.76658,32.35033 -11.48817,-14.79917 -25.45958,-25.98633 -39.58508,-31.90958 8.75767,-14.921 9.66425,-34.00942 2.13567,-49.536 -2.57642,-5.30692 -5.62583,-9.27008 -9.331,-12.10808 -3.4615,-2.65525 -8.75767,-4.05275 -16.19667,-4.27492 -8.47817,-0.22575 -14.16133,1.83825 -18.83758,7.009 -6.7725,7.49633 -7.40317,15.91 -7.482,24.596 -0.05375,5.41442 0.13258,10.90767 0.54467,16.32925 0.29742,3.90225 0.76325,8.4065 2.55133,12.49867 0.55183,1.2685 1.2685,2.49042 2.07117,3.68367 -4.2355,1.27925 -8.41725,2.89533 -12.4485,4.97725 -10.93633,5.63658 -22.4245,15.54808 -31.86658,27.39817 -0.06092,-0.11108 -0.13617,-0.215 -0.1935,-0.32608 -3.23217,-6.24933 -1.72,-17.17492 -0.99258,-22.4245 1.56233,-11.2445 0.46942,-22.66817 -0.58408,-33.71558 -0.43717,-4.57233 -0.88867,-9.30592 -1.1395,-13.93558 l -0.22575,-3.8915 c -0.76325,-12.48075 -1.55158,-25.3915 5.35708,-35.16325 4.07425,-5.75842 10.98292,-10.14083 18.95942,-12.02208 4.94858,-1.161 10.20533,-1.41183 15.29008,-1.64833 1.64475,-0.07525 3.30025,-0.1075 4.95933,-0.1075 5.86592,0 11.77483,0.41925 17.53683,0.83133 7.47483,0.52675 15.19692,1.07142 22.876,0.72742 l 21.53225,-0.08242 c 4.91633,-0.0645 10.48125,-0.04658 15.14675,1.97442 7.92992,3.43642 11.90025,12.1905 12.97525,19.23533 0.95317,6.26008 0.34758,10.5995 -0.41925,16.08917 -0.24008,1.72717 -0.50167,3.56183 -0.72742,5.59358 -1.62325,14.43367 -1.80242,29.08233 -0.5375,43.55183 z"
     style="font-family:none;mix-blend-mode:normal;fill-rule:nonzero;stroke:none;stroke-width:1;stroke-linecap:butt;stroke-linejoin:miter;stroke-miterlimit:10;stroke-dasharray:none;stroke-dashoffset:0;fill:#333333" />
</svg>
