<svg version="1.1" xmlns="http://www.w3.org/2000/svg" xmlns:xlink="http://www.w3.org/1999/xlink" viewBox="0 0 172 172">
    <g fill="none" fill-rule="nonzero" stroke="none" stroke-width="1" stroke-linecap="butt" stroke-linejoin="miter"
        stroke-miterlimit="10" stroke-dasharray="" stroke-dashoffset="0" font-family="none" font-weight="none"
        font-size="none" text-anchor="none" style="mix-blend-mode: normal">
        <path d="M0,172v-172h172v172z" fill="transparent"></path>
        <g>
            <path
                d="M103.7805,16.26833c-15.15033,0.7095 -30.26125,-2.16075 -45.41158,-1.45125c-5.23883,0.24367 -10.5135,0.4945 -15.61258,1.69492c-7.912,1.86333 -15.38325,6.18842 -20.01292,12.73158c-8.0195,11.34125 -6.20275,26.41633 -5.45383,40.1835c0.86,15.78817 3.90942,31.64083 1.73792,47.30717c-0.98183,7.0735 -2.12133,17.12117 1.17533,23.49233c2.623,5.07042 7.75792,8.55342 13.23325,10.46333c5.47533,1.90992 11.33767,2.43667 17.12833,2.9455c28.93183,2.54775 53.95067,2.64092 82.96133,1.15742c3.61917,-0.18633 7.38167,-0.47658 10.50275,-2.279c2.4295,-1.40467 4.26417,-3.62275 5.71183,-5.99492c7.53933,-12.36967 5.10267,-27.91058 3.84492,-42.25467c-1.26133,-14.36917 -1.08217,-28.85658 0.53033,-43.18992c0.96392,-8.56058 2.43667,-13.63458 1.1395,-22.15217c-1.29717,-8.52117 -5.977,-17.11758 -14.03233,-20.61133c-4.91992,-2.13208 -10.48842,-2.15 -15.87058,-2.1285c-7.20608,0.02867 -14.36917,0.06092 -21.57167,0.086z"
                fill="#9fdadf"></path>
            <path
                d="M150.85833,144.51942c-13.18667,-17.83067 -33.86608,-34.99125 -55.63125,-38.05858c-13.81733,-1.94933 -28.10767,1.06425 -40.549,7.46767c-12.44133,6.40342 -24.28067,17.66583 -32.81617,28.86017c0,0 4.72283,6.81192 13.48767,8.50683c8.76842,1.69492 37.73967,4.46483 50.40317,4.46483c12.6635,0 47.05992,1.40108 54.21225,-1.70925c7.15233,-3.11033 10.89333,-9.53167 10.89333,-9.53167z"
                fill="#f17d76"></path>
            <path
                d="M87.40108,45.03533c-8.44592,-0.25442 -13.33358,1.85975 -17.45083,6.41775c-6.13825,6.78683 -6.94092,14.46233 -7.02333,23.4135c-0.05017,5.3965 0.13258,10.793 0.54467,16.17517c0.31175,4.05275 0.76683,8.16642 2.40442,11.92175c2.83083,6.49658 8.95117,11.28033 15.63767,14.28317c5.67958,2.55133 12.53092,3.94883 18.14242,1.26492c3.397,-1.62683 5.89817,-4.54725 7.95858,-7.58592c10.04408,-14.79917 11.50967,-34.52542 3.75175,-50.51783c-2.10342,-4.33583 -4.89483,-8.46742 -8.80425,-11.46667c-3.90942,-2.99925 -10.14083,-3.75175 -15.16108,-3.90583z"
                fill="#fcbf95"></path>
            <path
                d="M155.36617,104.11017c-1.247,-14.22583 -1.07142,-28.638 0.52675,-42.83517c0.22575,-1.99233 0.47658,-3.79475 0.71308,-5.49325c0.77758,-5.55417 1.44408,-10.34867 0.41208,-17.12475c-1.57667,-10.35583 -7.22042,-18.57242 -15.08942,-21.98733c-5.35708,-2.31842 -11.31975,-2.322 -16.59083,-2.27542l-21.5645,0.08242l-0.07525,0.00358c-7.45692,0.35833 -15.10375,-0.1935 -22.49258,-0.72383c-7.48917,-0.52675 -15.23275,-1.08217 -22.91542,-0.72383c-5.246,0.24367 -10.67117,0.49808 -15.93867,1.73792c-8.94758,2.107 -16.42958,6.88 -21.06642,13.4375c-7.63608,10.80375 -6.80833,24.35233 -6.00925,37.453l0.22575,3.86642c0.25442,4.70133 0.7095,9.47075 1.15025,14.07892c1.032,10.84317 2.10342,22.05542 0.602,32.88783c-1.247,8.98342 -1.94217,18.17825 1.35808,24.56017c2.59433,5.0095 7.65042,9.03358 14.23658,11.3305c5.72617,2.00308 11.74258,2.52625 17.55833,3.03867c16.23608,1.42975 31.61575,2.13208 47.95575,2.13208c11.12267,0 22.68608,-0.32608 35.25642,-0.97108c4.0205,-0.20783 7.912,-0.55183 11.30542,-2.5155c2.40083,-1.38675 4.47558,-3.5475 6.34608,-6.61483c7.10217,-11.653 5.77633,-25.59217 4.4935,-39.0655zM148.21025,145.58725c-1.55158,2.54058 -3.21067,4.29642 -5.07758,5.37858c-2.70542,1.56592 -6.13108,1.85617 -9.6965,2.03892c-30.85608,1.5695 -55.60258,1.23625 -82.71408,-1.15383c-5.60075,-0.49092 -11.39142,-0.99617 -16.69117,-2.84875c-4.09575,-1.42975 -7.46408,-3.5905 -9.85775,-6.235c9.23783,-11.82858 20.597,-21.71858 31.33267,-27.2405c4.22833,-2.193 8.62508,-3.92017 13.08633,-5.21017c3.07808,3.40417 7.22758,6.33892 12.18333,8.56775c4.23908,1.90275 8.33125,2.86308 12.05075,2.86308c2.77708,0 5.34633,-0.5375 7.60025,-1.61608c3.9775,-1.90275 6.70442,-5.3535 8.46383,-7.90483c16.13575,6.7295 30.44758,20.09533 39.7965,32.42558c-0.172,0.30458 -0.29025,0.63067 -0.47658,0.93525zM106.13475,109.92233c-1.51933,2.22883 -3.92017,5.37858 -7.25267,6.97317c-5.805,2.78783 -12.91433,0.387 -16.63742,-1.27925c-7.14158,-3.21067 -12.37325,-7.955 -14.7275,-13.36583c-1.56233,-3.58333 -1.97442,-7.56442 -2.2575,-11.34125c-0.4085,-5.31767 -0.59125,-10.71058 -0.5375,-16.02108c0.07167,-7.97292 0.62708,-15.66633 6.5575,-22.231c3.75533,-4.15308 7.96217,-5.848 14.73108,-5.848c0.43358,0 0.8815,0.00717 1.34017,0.0215c6.56467,0.19708 11.31617,1.38675 14.11833,3.53317c3.25008,2.49042 5.95908,6.03792 8.28467,10.82525c7.45692,15.37608 6.03433,34.50392 -3.61917,48.73333zM151.79717,104.4255l0.39775,4.3c1.06067,11.13342 2.12492,22.58217 -1.76658,32.35033c-11.48817,-14.79917 -25.45958,-25.98633 -39.58508,-31.90958c8.75767,-14.921 9.66425,-34.00942 2.13567,-49.536c-2.57642,-5.30692 -5.62583,-9.27008 -9.331,-12.10808c-3.4615,-2.65525 -8.75767,-4.05275 -16.19667,-4.27492c-8.47817,-0.22575 -14.16133,1.83825 -18.83758,7.009c-6.7725,7.49633 -7.40317,15.91 -7.482,24.596c-0.05375,5.41442 0.13258,10.90767 0.54467,16.32925c0.29742,3.90225 0.76325,8.4065 2.55133,12.49867c0.55183,1.2685 1.2685,2.49042 2.07117,3.68367c-4.2355,1.27925 -8.41725,2.89533 -12.4485,4.97725c-10.93633,5.63658 -22.4245,15.54808 -31.86658,27.39817c-0.06092,-0.11108 -0.13617,-0.215 -0.1935,-0.32608c-3.23217,-6.24933 -1.72,-17.17492 -0.99258,-22.4245c1.56233,-11.2445 0.46942,-22.66817 -0.58408,-33.71558c-0.43717,-4.57233 -0.88867,-9.30592 -1.1395,-13.93558l-0.22575,-3.8915c-0.76325,-12.48075 -1.55158,-25.3915 5.35708,-35.16325c4.07425,-5.75842 10.98292,-10.14083 18.95942,-12.02208c4.94858,-1.161 10.20533,-1.41183 15.29008,-1.64833c1.64475,-0.07525 3.30025,-0.1075 4.95933,-0.1075c5.86592,0 11.77483,0.41925 17.53683,0.83133c7.47483,0.52675 15.19692,1.07142 22.876,0.72742l21.53225,-0.08242c4.91633,-0.0645 10.48125,-0.04658 15.14675,1.97442c7.92992,3.43642 11.90025,12.1905 12.97525,19.23533c0.95317,6.26008 0.34758,10.5995 -0.41925,16.08917c-0.24008,1.72717 -0.50167,3.56183 -0.72742,5.59358c-1.62325,14.43367 -1.80242,29.08233 -0.5375,43.55183z"
                fill="#010101"></path>
        </g>
    </g>
</svg>